<svg class="icon" viewBox="0 0 1821 1024" xmlns="http://www.w3.org/2000/svg" width="355.664" height="200"><defs><style/></defs><path d="M1170.193 177.595H623.076c-36.476 0-68.39 31.915-68.39 68.389v592.711c0 36.475 31.916 68.39 68.39 68.39h152.092c.611.039 1.226.068 1.845.068 15.347 0 27.79-12.442 27.79-27.79 0-13.375-9.45-24.538-22.035-27.187l-142.067-.001c-18.121 0-32.81-14.689-32.81-32.807V264.483c0-18.121 14.689-32.81 32.81-32.81h509.883c18.119 0 32.81 14.688 32.81 32.81v108.793c2.237 13.105 13.641 23.079 27.382 23.079 14.865 0 27.004-11.673 27.751-26.352l.057-.001V245.983c0-36.476-31.915-68.389-68.39-68.389z"/><path d="M1062.267 459.21c-135.678 0-245.665 109.989-245.665 245.665S926.59 950.54 1062.267 950.54s245.665-109.989 245.665-245.665-109.989-245.665-245.665-245.665zm0 448.231c-111.872 0-202.561-90.69-202.561-202.562 0-111.871 90.689-202.561 202.561-202.561 111.871 0 202.561 90.69 202.561 202.561 0 111.872-90.69 202.562-202.561 202.562z"/><path d="M906.914 684.045a19.47 19.47 0 0 1-1.439.24c-.429.054-.908.078-1.439.078-2.774 0-5.119-.878-7.039-2.639-1.919-1.761-2.88-4.185-2.88-7.28v-12.318c0-3.199.266-5.892.8-8.079.532-2.185 1.439-3.919 2.719-5.2 1.279-1.278 3.01-2.185 5.2-2.718 2.185-.532 4.879-.8 8.078-.8h44.95c.746 0 1.121-.105 1.121-.322 0-.211-.107-.531-.322-.96a62.04 62.04 0 0 1-.8-1.678c-.321-.694-.479-1.521-.479-2.479 0-2.345 1.173-4.239 3.519-5.679 2.345-1.44 5.171-2.16 8.479-2.16 3.411 0 6 .827 7.758 2.479 1.759 1.653 3.438 4.827 5.039 9.518.211.534.425.88.639 1.04.211.16.745.239 1.6.239h43.51c3.519 0 6.479.214 8.879.639 2.4.427 4.318 1.175 5.758 2.239 1.44 1.069 2.453 2.509 3.04 4.319.585 1.814.88 4.054.88 6.718 0 7.787-1.069 13.892-3.199 18.317-2.134 4.427-5.439 6.639-9.919 6.639-.747 0-1.279-.053-1.6-.16 1.171 2.028 1.759 5.067 1.759 9.118v58.867c0 5.44-1.199 9.332-3.599 11.679-2.4 2.345-6.479 3.519-12.238 3.519h-34.714c-1.6 0-2.401.8-2.401 2.4v9.118c.322 3.199-.587 5.6-2.718 7.199-2.135 1.6-4.481 2.401-7.039 2.401-2.561 0-4.908-.801-7.039-2.401-2.134-1.6-3.04-3.999-2.719-7.199v-9.118c0-1.6-.8-2.4-2.401-2.4h-35.83c-5.758 0-9.786-1.148-12.078-3.441-2.294-2.293-3.44-6.21-3.44-11.758v-58.867c.002-3.838.533-6.877 1.602-9.117zm58.387-20.795h-47.19c-1.495 0-2.56.399-3.199 1.199-.641.801-.96 2.161-.96 4.08v5.918c0 2.348-.375 3.894-1.121 4.64 2.239-.639 4.903-.961 7.998-.961h35.833c1.601 0 2.401-.8 2.401-2.4v-3.518c-.001-4.479 2.079-7.463 6.239-8.958zm-6.237 47.511v-12.797c0-1.6-.8-2.401-2.401-2.401h-28.634c-2.134 0-3.199 1.334-3.199 4v11.197c0 1.6.8 2.399 2.4 2.399h29.435c1.6.001 2.4-.799 2.4-2.399zm0 35.992v-14.078c0-1.601-.8-2.401-2.401-2.401h-29.434c-1.6 0-2.401.8-2.401 2.401v12.318c0 2.774 1.063 4.161 3.199 4.161h28.634c1.602.001 2.402-.8 2.402-2.4zm62.387-68.146c-.107-.426-.161-.933-.161-1.521 0-.585.267-1.625.801-3.119 1.279-3.518 1.919-6.24 1.919-8.157 0-1.066-.429-1.761-1.279-2.08-.854-.321-2.348-.479-4.479-.479h-45.909c4.159 1.497 6.239 4.478 6.239 8.959v3.518c0 1.6.801 2.399 2.401 2.399h34.714c2.662 0 4.583.161 5.758.48zm-9.44 32.154v-11.197c0-2.665-1.119-4-3.36-4h-27.675c-1.6 0-2.401.801-2.401 2.401v12.797c0 1.6.801 2.399 2.401 2.399h28.635c1.6.001 2.4-.799 2.4-2.399zm0 34.229v-12.317c0-1.601-.8-2.401-2.4-2.401h-28.635c-1.6 0-2.401.8-2.401 2.401v14.077c0 1.601.801 2.401 2.401 2.401h27.675c1.279 0 2.161-.292 2.64-.878s.72-1.68.72-3.281zm88.625-85.742c-.215-3.199.532-5.731 2.239-7.599 1.706-1.863 4.103-2.799 7.199-2.799h31.195c1.066.108 1.623 0 1.678-.32.053-.322-.107-.88-.478-1.679a60.64 60.64 0 0 1-1.361-3.199c-.534-1.332-.854-3.01-.961-5.039 0-1.279.372-2.371 1.121-3.279.745-.905 1.679-1.653 2.799-2.239 1.121-.585 2.4-1.039 3.84-1.361 1.439-.322 2.799-.479 4.079-.479 2.663 0 5.038 1.387 7.118 4.161 2.079 2.774 4.079 6.718 6 11.838.322 1.068 1.063 1.6 2.24 1.6h31.351c2.88 0 5.171.854 6.879 2.56 1.706 1.708 2.56 3.947 2.56 6.719 0 2.774-.854 5.013-2.56 6.718-1.708 1.708-3.999 2.56-6.879 2.56h-44.95c-.855 0-1.76.747-2.719 2.24l-11.677 17.596c-2.454 3.734-3.679 5.868-3.679 6.4 0 .96 1.6 1.279 4.799.96 3.199-.321 7.839-.478 13.919-.478.425 0 .852-.08 1.278-.24.426-.16.961-.639 1.601-1.439.639-.8 1.385-1.972 2.239-3.519.853-1.543 1.972-3.76 3.36-6.638 3.092-5.651 6.183-8.48 9.28-8.48.96 0 2 .24 3.119.72a12.603 12.603 0 0 1 3.119 1.919 9.121 9.121 0 0 1 2.319 2.96c.585 1.175.88 2.4.88 3.68 0 2.027-.747 4.427-2.24 7.199a150.562 150.562 0 0 1-12.318 19.195c-4.587 6.079-9.437 11.653-14.558 16.718-5.118 5.067-10.373 9.626-15.757 13.677-5.387 4.054-10.637 7.413-15.758 10.079-2.453 1.387-4.959 2.079-7.517 2.079-3.094 0-5.439-.961-7.039-2.879-1.6-1.919-2.4-4-2.4-6.24 0-3.411 2.878-6.719 8.637-9.919 7.039-3.839 13.489-7.998 19.356-12.477 5.758-4.265 8.639-6.666 8.639-7.201 0-.531-.801-.8-2.401-.8l-8.158.161c-3.734.107-6.826.055-9.28-.161-2.453-.211-4.266-.583-5.439-1.119 1.172 2.56 1.76 4.827 1.76 6.798 0 1.977-1.069 3.76-3.199 5.359-2.134 1.495-4.108 2.24-5.918 2.24-1.919 0-3.815-1.172-5.679-3.518-1.868-2.345-3.6-4.96-5.2-7.839-.747-1.173-1.334-1.761-1.76-1.761-.429 0-.639.639-.639 1.919v63.347c0 2.88-.907 5.225-2.718 7.039-1.814 1.812-4.161 2.718-7.039 2.718-2.88 0-5.226-.907-7.039-2.718-1.814-1.814-2.719-4.159-2.719-7.039v-43.993c0-.96-.134-1.438-.399-1.438-.268 0-.614.427-1.04 1.278-2.346 5.868-4.426 9.598-6.239 11.198-1.708 1.497-3.573 2.239-5.6 2.239-2.027 0-4.213-.692-6.558-2.079-2.24-1.385-3.36-3.411-3.36-6.078 0-2.663.745-5.332 2.239-7.999a204.638 204.638 0 0 0 7.519-15.358 187.822 187.822 0 0 0 6.078-15.836c3.625-10.558 5.44-17.062 5.44-19.518 0-1.279-.854-1.918-2.56-1.918h-8.318c-2.987 0-5.388-.88-7.199-2.641-1.814-1.759-2.718-4.079-2.718-6.958 0-2.878.905-5.2 2.718-6.958 1.81-1.759 4.211-2.64 7.199-2.64h10.397c1.6 0 2.4-.8 2.4-2.401v-14.077c0-2.879.906-5.225 2.719-7.039 1.812-1.812 4.159-2.718 7.039-2.718 2.879 0 5.225.907 7.039 2.718 1.812 1.814 2.718 4.161 2.718 7.039v14.077c0 1.601.8 2.401 2.401 2.401h3.52zm8.795 42.874l1.28-3.519a48.476 48.476 0 0 1 1.439-3.518c1.063-2.025 3.252-5.81 6.558-11.357a291.408 291.408 0 0 1 4.879-7.679 274.177 274.177 0 0 1 4.558-6.719c.322-.531.48-.985.48-1.361 0-.371-.587-.561-1.76-.561h-13.119c.426 2.987-.269 5.574-2.079 7.758-1.814 2.187-4.373 3.28-7.679 3.28h-6.878c-1.497-.322-2.297.134-2.401 1.36a8.29 8.29 0 0 0 .478 3.6 882.452 882.452 0 0 1 8.158 10.559 540.912 540.912 0 0 1 6.079 8.158zm71.344 38.872c0 .534.267 1.069.801 1.601 5.225 5.226 9.519 9.732 12.878 13.518 3.36 3.785 5.892 6.85 7.597 9.198 1.706 2.345 2.986 4.372 3.839 6.079.853 1.706 1.307 3.252 1.361 4.639.053 1.385-.295 2.64-1.039 3.76-.748 1.121-1.815 2.211-3.199 3.279-2.135 1.492-3.894 2.479-5.279 2.96-1.387.479-2.614.56-3.68.239-1.068-.321-2.107-1.069-3.118-2.24a254.518 254.518 0 0 1-3.76-4.478c-2.774-3.839-5.226-7.118-7.358-9.838-2.134-2.718-3.894-4.878-5.278-6.478-1.387-1.497-2.508-2.775-3.36-3.84-.854-1.069-1.548-1.863-2.08-2.4-.854-1.066-1.6-1.601-2.239-1.601-.639 0-1.228.268-1.76.801a175.448 175.448 0 0 1-14.797 11.517 176.931 176.931 0 0 1-15.757 9.759c-10.986 5.97-18.345 8.957-22.077 8.957-1.919 0-3.547-.346-4.878-1.039-1.334-.697-2.427-1.601-3.279-2.718-.854-1.121-1.468-2.294-1.84-3.519a12.278 12.278 0 0 1-.561-3.6c0-3.518 2.985-6.506 8.958-8.958 15.677-6.078 29.859-14.741 42.551-25.995 12.688-11.25 23.194-24.607 31.513-40.07 2.985-5.545 5.758-8.319 8.317-8.319 2.561 0 4.96.88 7.199 2.641 2.24 1.76 3.361 4.079 3.361 6.958 0 1.919-.854 4.587-2.56 7.998-1.601 3.628-4.215 8.158-7.839 13.597a171.33 171.33 0 0 1-5.679 8.158 126.344 126.344 0 0 1-6.159 7.679c-.533.748-.8 1.335-.8 1.761zM676.22 478.876c-9.123 0-16.736-7.61-16.736-16.713 0-9.179 7.613-16.718 16.736-16.718h145.644c9.125 0 16.733 7.538 16.733 16.718 0 9.104-7.609 16.713-16.733 16.713H676.22zm0-68.427c-9.123 0-16.736-7.612-16.736-16.718 0-9.174 7.613-16.716 16.736-16.716h328.117c9.104 0 16.718 7.542 16.718 16.716 0 9.104-7.613 16.718-16.718 16.718H676.22zm0-66.931c-9.123 0-16.736-7.612-16.736-16.718 0-9.103 7.613-16.711 16.736-16.711h441.226c9.104 0 16.718 7.609 16.718 16.711 0 9.104-7.612 16.718-16.718 16.718H676.22z"/></svg>