<svg class="icon" width="200" height="200" viewBox="0 0 1024 1024" xmlns="http://www.w3.org/2000/svg"><path fill="#333" d="M809.088 956.901H215.59c-3.01 0-5.979-.129-8.922-.505-2.314-.235-5.023-.676-7.706-1.221-3.205-.717-5.954-1.462-8.573-2.353-2.163-.656-4.866-1.703-7.531-2.905a78.007 78.007 0 0 1-7.329-3.75 77.742 77.742 0 0 1-6.719-4.3c-2.118-1.463-4.322-3.231-6.395-5.063a80.633 80.633 0 0 1-5.673-5.413c-1.853-1.938-3.6-4.01-5.302-6.149-1.592-2.006-3.14-4.215-4.647-6.524-1.397-2.207-2.728-4.651-4.036-7.16-1.266-2.422-2.312-4.776-3.339-7.2-1.242-3.14-2.138-5.757-2.904-8.442a76.303 76.303 0 0 1-1.984-8.227 82.012 82.012 0 0 1-1.2-8.356 87.11 87.11 0 0 1-.437-8.492V242.172c0-2.965.175-5.888.46-8.728.235-2.683.651-5.517 1.197-8.357.501-2.748 1.247-5.672 2.117-8.487.611-2.248 1.507-4.82 2.509-7.354 1.242-2.963 2.293-5.303 3.425-7.546 1.462-2.774 2.794-5.172 4.34-7.51 1.359-2.093 2.925-4.342 4.627-6.5 1.638-2.053 3.32-4.035 5.088-5.913 2.158-2.203 4.08-4.08 6.128-5.848 1.723-1.527 3.95-3.275 6.264-4.911a86.232 86.232 0 0 1 6.543-4.187 76.095 76.095 0 0 1 7.401-3.775 83.753 83.753 0 0 1 7.636-2.945c2.75-.896 5.433-1.637 8.137-2.208a82.216 82.216 0 0 1 8.356-1.352 85.05 85.05 0 0 1 8.487-.436h55.514c12.066 0 21.82 9.774 21.82 21.82 0 12.043-9.754 21.821-21.82 21.821h-55.514c-1.327 0-2.658.066-3.97.195a35.12 35.12 0 0 0-3.705.611c-1.266.285-2.534.63-3.71 1.025a47.137 47.137 0 0 0-3.495 1.353 34.74 34.74 0 0 0-3.23 1.637 49.14 49.14 0 0 0-3.16 2.028c-1.18.833-2.118 1.548-2.99 2.314-1.357 1.138-2.247 2.072-3.144 3.01a52.66 52.66 0 0 0-2.509 2.968c-.806.982-1.481 2.028-2.202 3.12-.897 1.352-1.462 2.487-2.098 3.644a74.007 74.007 0 0 0-1.807 3.99 71.98 71.98 0 0 0-1.137 3.405 42.244 42.244 0 0 0-1.027 4.126 40.96 40.96 0 0 0-.63 4.342 43.193 43.193 0 0 0-.26 4.646v628.671c0 1.487.084 2.968.239 4.411.152 1.637.37 3.01.611 4.36.305 1.508.586 2.71.957 3.907a56.046 56.046 0 0 0 1.486 4.452c.37.83 1.002 2.228 1.678 3.559.5.982 1.09 2.138 1.813 3.205.806 1.267 1.526 2.337 2.359 3.359a42.62 42.62 0 0 0 2.614 3.1c.921.941 1.812 1.832 2.819 2.71a35.997 35.997 0 0 0 2.988 2.377 31.734 31.734 0 0 0 3.185 2.028 34.241 34.241 0 0 0 3.516 1.813 29.3 29.3 0 0 0 3.184 1.242c1.742.59 2.963.896 4.146 1.156.85.176 2.158.415 3.47.545 1.593.195 2.789.215 3.97.215h593.494c1.222 0 2.357-.02 3.581-.17 1.676-.177 2.963-.416 4.19-.657.937-.22 2.178-.5 3.335-.915 1.441-.462 2.467-.851 3.45-1.313a37.843 37.843 0 0 0 3.47-1.742 40.562 40.562 0 0 0 3.334-2.118c1.072-.765 2.117-1.612 3.124-2.462.696-.637 1.633-1.508 2.508-2.444 1.267-1.292 2.073-2.294 2.9-3.34.59-.766 1.287-1.702 1.897-2.708 1.093-1.678 1.704-2.749 2.274-3.86a38.94 38.94 0 0 0 1.638-3.557c.65-1.616 1.087-2.879 1.457-4.19.35-1.176.7-2.508.961-3.884.33-1.678.525-3.12.676-4.601.154-1.463.201-2.945.201-4.432V242.172c0-1.502-.046-2.989-.201-4.427a50.655 50.655 0 0 0-.651-4.432 46.45 46.45 0 0 0-1.025-4.255c-.352-1.09-.767-2.354-1.287-3.599-.636-1.658-1.248-2.86-1.833-4.057a31.312 31.312 0 0 0-1.812-3.099c-1.072-1.721-1.724-2.637-2.424-3.533-.676-.832-1.547-1.923-2.528-2.945a41.376 41.376 0 0 0-2.884-2.774 38.785 38.785 0 0 0-2.99-2.353c-1.13-.812-2.287-1.532-3.51-2.248a39.699 39.699 0 0 0-3.034-1.507 40.542 40.542 0 0 0-3.73-1.442c-.83-.26-2.117-.63-3.425-.916a35.816 35.816 0 0 0-3.73-.61 39.386 39.386 0 0 0-3.976-.196h-55.507c-12.066 0-21.821-9.774-21.821-21.82 0-12.043 9.755-21.822 21.821-21.822h55.507a78.917 78.917 0 0 1 16.934 1.814c2.535.546 5.174 1.267 7.727 2.073 2.989 1.007 5.497 1.989 7.941 3.079a79.935 79.935 0 0 1 7.2 3.64c2.574 1.527 4.778 2.923 6.876 4.431 2.183 1.527 4.23 3.185 6.258 4.932 2.163 1.853 4.126 3.776 5.983 5.737 1.658 1.768 3.336 3.73 4.993 5.784 2.008 2.554 3.69 4.907 5.171 7.395 1.111 1.638 2.535 4.102 3.867 6.655a85.638 85.638 0 0 1 3.424 7.636 74.42 74.42 0 0 1 2.64 7.55c.832 2.88 1.526 5.654 2.053 8.403.48 2.64.917 5.413 1.196 8.227.286 2.86.416 5.757.416 8.727v628.668a86.9 86.9 0 0 1-.416 8.707 87.035 87.035 0 0 1-1.24 8.377c-.463 2.579-1.177 5.348-1.944 8.031a83.253 83.253 0 0 1-2.86 8.207c-.85 2.223-2.047 4.775-3.268 7.22-1.332 2.554-2.755 5.062-4.321 7.44-1.072 1.767-2.729 4.102-4.478 6.33-1.852 2.313-3.599 4.386-5.453 6.304-1.506 1.637-3.47 3.515-5.497 5.302-2.268 1.943-4.34 3.625-6.523 5.152a76.865 76.865 0 0 1-6.876 4.386 79.975 79.975 0 0 1-7.284 3.685c-2.359 1.092-5.087 2.138-7.856 3.01-2.203.747-4.887 1.461-7.66 2.072-2.946.61-5.72 1.073-8.508 1.356-2.517.304-5.417.434-8.426.434zM373.421 272.483c-14.466 0-29.132-7.265-38.274-19.006-8.987-11.522-11.976-25.811-8.356-40.192l2.006-8.096c3.862-15.402 7.2-28.801 9.144-36.832 4.606-19.157 29.132-41.453 53.806-41.453l24.875-.046 10.604.046.046-.176c2.594-10.585 7.59-30.768 9.903-39.126 5.348-19.091 28.455-39.665 56.495-39.665l23.062-.045 13.79.045c28.67.065 51.908 20.794 56.93 39.971 2.335 8.708 7.591 28.345 10.365 39.015l10.19.02 18.741-.04c36.852 0 56.098 24.786 60.134 41.433l10.956 45.103c3.554 14.66.565 29.02-8.402 40.407-9.033 11.456-23.327 18.591-37.332 18.591l-22.783-.02c-64.54-.09-242.72-.305-254.697 0l-1.203.066zm43.2-101.943l-24.811.045c-3.029.11-10.144 5.627-11.781 9.097-1.613 7.05-4.997 20.58-8.858 36.092l-2.027 8.116c-.37 1.417-.155 2.029.436 2.749 1.13 1.462 3.1 2.203 3.86 2.203v21.82l.045-21.82c12.02-.326 190.963-.105 255.899-.02l22.736.02c.528-.066 2.27-.871 3.165-2.093.24-.325.656-.936.176-3.009l-10.995-45.058c-.045 0-3.405-8.096-17.33-8.096l-19.158.045-15.271-.045c-16.844 0-31.64-11.633-36.006-28.281-2.159-8.422-8.702-33.057-11.41-43.18-.852-1.702-7.07-7.506-14.922-7.526l-13.64-.025-23.061.045c-7.505 0-13.575 5.978-14.62 8.27-2.073 7.547-6.875 27.1-9.428 37.333l-1.197 4.823c-4.256 17.304-18.987 28.54-37.488 28.54l-14.314-.045zM659.833 669.1H533.878v-68.019h125.955c6.116 0 11.814-2.327 16.05-6.563 4.028-4.058 6.22-9.397 6.206-15.006.015-5.609-2.178-10.949-6.22-14.977-4.222-4.266-9.92-6.592-16.036-6.592H533.565l-.582-5.669 142.424-142.423c8.696-8.652 8.935-22.584.536-30.996-3.938-3.998-9.263-6.176-15.006-6.176-6.011 0-11.71 2.357-16.05 6.683L512.292 511.91 379.685 379.361c-4.296-4.326-9.979-6.683-15.99-6.683-5.728 0-11.053 2.178-14.991 6.146-3.997 3.967-6.19 9.308-6.205 15.065 0 5.997 2.387 11.666 6.713 15.96L490.71 550.126v7.817H364.74c-6.101 0-11.785 2.327-16.022 6.592-4.027 4.058-6.235 9.368-6.22 14.977 0 11.904 9.994 21.57 22.285 21.57H490.71V669.1H364.74c-6.086 0-11.77 2.328-16.02 6.593-4.028 4.058-6.236 9.368-6.22 14.977 0 11.904 9.993 21.569 22.284 21.569H490.71v88.932c0 12.261 9.68 22.226 21.584 22.226s21.585-9.965 21.585-22.226v-88.932h125.955c6.116 0 11.814-2.327 16.05-6.593 4.028-4.027 6.22-9.367 6.206-14.976.015-5.61-2.194-10.92-6.22-14.977-4.238-4.265-9.935-6.592-16.036-6.592z"/></svg>