<svg class="icon" width="200" height="200" viewBox="0 0 1024 1024" xmlns="http://www.w3.org/2000/svg"><path fill="#333" d="M798.553 456.938C755.636 506.02 647.855 540.93 521.18 540.93c-3.116 0-6.064-.134-9.18-.201-3.115.067-6.098.201-9.213.201-126.71 0-234.424-34.91-277.308-83.96-.603.636-1.205 1.274-1.775 1.877v89.956c41.745 50.054 150.73 85.87 279.115 85.87 3.083 0 6.066-.169 9.248-.2 3.05.031 6.03.2 9.113.2 128.384 0 237.404-35.816 279.117-85.87v-89.956c-.504-.636-1.207-1.24-1.744-1.91zM521.18 195.21c-3.083 0-6.064.167-9.113.2-3.183-.033-6.164-.2-9.248-.2-128.385 0-237.37 35.815-279.115 85.902v89.923c.57.67 1.205 1.274 1.775 1.91 42.952 49.048 150.665 83.993 277.341 83.993 3.083 0 6.066-.167 9.248-.235 3.05.068 6.03.235 9.113.235 126.742 0 234.456-34.945 277.373-84.027.57-.636 1.24-1.24 1.743-1.876v-89.923c-41.713-50.087-150.733-85.902-279.117-85.902zm277.373 439.464c-42.917 49.082-150.698 83.992-277.373 83.992-3.116 0-6.064-.134-9.18-.201-3.115.067-6.098.201-9.213.201-126.71 0-234.424-34.91-277.308-83.959-.603.636-1.205 1.239-1.775 1.876v89.923c41.745 50.087 150.73 85.903 279.115 85.903 3.083 0 6.066-.202 9.248-.235 3.05.033 6.03.235 9.113.235 128.384 0 237.404-35.816 279.117-85.903v-89.923c-.504-.637-1.207-1.275-1.744-1.91z"/></svg>