<svg class="icon" viewBox="0 0 1024 1024" xmlns="http://www.w3.org/2000/svg" width="200" height="200"><defs><style/></defs><path d="M408 102.4h381.312c19.2 0 34.688 15.232 34.688 34.112v750.976c0 18.816-15.488 34.112-34.688 34.112H234.688c-19.136 0-34.688-15.296-34.688-34.112V307.2h208V102.4zM96 273.024v682.688c0 37.696 31.04 68.288 69.312 68.288h693.312c38.4 0 69.376-30.592 69.376-68.224V68.288C928 30.592 897.024 0 858.624 0H373.312L96 273.024zm346.688 204.8V614.4H329.6l182.656 180.928L696.128 614.4H581.376V477.824H442.688z"/></svg>