<svg class="icon" viewBox="0 0 1024 1024" xmlns="http://www.w3.org/2000/svg" width="200" height="200"><defs><style/></defs><path d="M970.914 370.759c-9.665 0-17.535-7.803-17.535-17.783v582.876c0-9.931 7.962-17.783 17.535-17.783H53.086c9.665 0 17.535 7.802 17.535 17.783V352.976c0 9.931-7.962 17.783-17.535 17.783h917.828zM0 352.976v582.876c0 29.158 23.883 52.838 53.086 52.838h917.828c29.211 0 53.086-23.545 53.086-52.838V352.976c0-29.159-23.883-52.838-53.086-52.838H53.086C23.875 300.138 0 323.683 0 352.976zm918.024-105.804c19.501 0 35.31-15.809 35.31-35.31 0-19.501-15.809-35.31-35.31-35.31H105.976c-19.501 0-35.31 15.809-35.31 35.31 0 19.501 15.809 35.31 35.31 35.31h812.048zM282.528 52.966c-19.502 0-35.31 15.809-35.31 35.31 0 19.501 15.808 35.31 35.31 35.31h458.944c19.502 0 35.31-15.809 35.31-35.31 0-19.501-15.808-35.31-35.31-35.31H282.528zm406.085 723.862c19.501 0 35.31-15.81 35.31-35.31 0-19.502-15.809-35.311-35.31-35.311H335.387c-19.501 0-35.31 15.809-35.31 35.31 0 19.502 15.809 35.31 35.31 35.31h353.226zM335.387 582.62c-19.501 0-35.31 15.809-35.31 35.31 0 19.501 15.809 35.31 35.31 35.31h353.226c19.501 0 35.31-15.809 35.31-35.31 0-19.501-15.809-35.31-35.31-35.31H335.387zM476.69 847.5c0 19.501 15.809 35.31 35.31 35.31 19.501 0 35.31-15.809 35.31-35.31V635.534c0-19.502-15.809-35.31-35.31-35.31-19.501 0-35.31 15.808-35.31 35.31V847.5zm72.793-226.204l124.78-124.78c13.789-13.789 13.789-36.146 0-49.936-13.79-13.79-36.148-13.79-49.937 0l-124.78 124.78a17.534 17.534 0 0 1 24.907 0c-13.79-13.79-36.147-13.79-49.936 0-13.79 13.789-13.79 36.146 0 49.936 20.698 20.698 54.348 20.618 74.966 0zm-74.966 0c13.79 13.79 36.147 13.79 49.936 0 13.79-13.79 13.79-36.147 0-49.937L399.674 446.581c-13.79-13.79-36.147-13.79-49.936 0-13.79 13.79-13.79 36.147 0 49.937l124.779 124.779z"/></svg>