<svg class="icon" viewBox="0 0 1024 1024" xmlns="http://www.w3.org/2000/svg" width="200" height="200"><defs><style/></defs><path d="M452 837.031H249.687c-34.687 0-62.906-28.218-62.906-62.906V391.812c0-13.968 11.344-25.312 25.313-25.312s25.312 11.344 25.312 25.313v382.312c0 6.75 5.531 12.281 12.281 12.281H452c13.969 0 25.313 11.344 25.313 25.313S465.969 837.03 452 837.03zm360.188-299.906c-13.97 0-25.313-11.344-25.313-25.313V397.625c0-13.969 11.344-25.313 25.313-25.313s25.312 11.344 25.312 25.313v114.188c0 13.968-11.344 25.312-25.313 25.312zM774.5 837.031H572.094c-13.969 0-25.313-11.343-25.313-25.312s11.344-25.313 25.313-25.313H774.5c6.75 0 12.281-5.531 12.281-12.281v-82.219c0-13.968 11.344-25.312 25.313-25.312s25.312 11.343 25.312 25.312v82.219c.094 34.688-28.125 62.906-62.906 62.906z"/><path d="M110.75 497c-7.406 0-14.813-3.281-19.781-9.563-8.719-10.968-6.938-26.812 4.031-35.53l369.75-294.938c13.219-10.5 29.719-16.313 46.594-16.313h.094c16.875 0 33.468 5.813 46.687 16.406L902 432.5c10.875 8.719 12.656 24.656 3.938 35.625-8.72 10.875-24.657 12.656-35.625 3.938L526.342 196.53c-8.812-7.125-21.187-7.125-30.093 0L126.5 491.47c-4.594 3.75-10.219 5.531-15.75 5.531zm461.344 340.031c-1.5 0-2.907-.093-4.313-.375-1.406.282-2.812.375-4.312.375H452c-13.969 0-25.313-11.343-25.313-25.312V632.094c0-47.063 38.344-85.407 85.407-85.407 22.781 0 44.25 8.907 60.375 25.032s25.031 37.593 25.031 60.375v179.625c-.094 13.968-11.438 25.312-25.406 25.312zm-94.782-50.625h69.563V632.094c0-9.282-3.656-18-10.219-24.563s-15.281-10.218-24.562-10.218c-19.125 0-34.782 15.562-34.782 34.78v154.313z"/></svg>