<svg class="icon" viewBox="0 0 1024 1024" xmlns="http://www.w3.org/2000/svg" width="200" height="200"><defs><style/></defs><path d="M506.58 630.154c13.73 0 25.293-11.563 25.293-25.293V273.886c0-13.73-11.562-25.293-25.293-25.293s-25.293 11.562-25.293 25.293v331.698c0 13.73 10.84 24.57 25.293 24.57z"/><path d="M916.325 486.346c-.723-13.73-12.285-24.57-26.739-23.848-13.73.723-24.57 12.285-23.847 26.738 0 6.504.723 12.286.723 18.79 0 198.73-161.152 359.88-359.882 359.88s-360.604-161.15-360.604-359.88 161.152-359.882 359.881-359.882c52.754 0 103.34 10.84 151.035 33.242 5.059 2.168 10.84 5.059 15.898 7.95 12.286 6.503 27.461 1.445 33.965-10.84 6.504-12.286 1.445-27.461-10.84-33.965-5.78-2.89-12.285-6.504-18.789-9.395-54.199-25.293-112.011-37.578-171.991-37.578-226.19 0-410.467 184.277-410.467 410.467s184.276 410.468 410.467 410.468 410.467-184.277 410.467-410.468c1.445-7.226 1.445-14.453.723-21.68z"/><path d="M478.397 706.755a28.183 28.183 0 1 0 56.367 0 28.183 28.183 0 1 0-56.367 0zM846.228 389.51a27.46 27.46 0 1 0 54.92 0 27.46 27.46 0 1 0-54.92 0zM805.759 300.624a27.46 27.46 0 1 0 54.921 0 27.46 27.46 0 1 0-54.921 0zM739.9979999999999 224.745a27.46 27.46 0 1 0 54.92 0 27.46 27.46 0 1 0-54.92 0z"/></svg>