<svg class="icon" width="200" height="200" viewBox="0 0 1024 1024" xmlns="http://www.w3.org/2000/svg"><path fill="#333" d="M511.706 64.021c-247.282 0-447.743 200.454-447.743 447.724S264.425 959.47 511.706 959.47s447.742-200.453 447.742-447.724S758.987 64.021 511.706 64.021zM348.769 168.283c3.764-2.682 8.057-3.755 12.884-3.225 4.828.535 9.929 1.609 15.306 3.225a1002.755 1002.755 0 0 1 15.691 4.843c5.084 1.612 9.783 1.879 14.095.798 7.522-1.616 13.154-4.43 16.902-8.452 3.743-4.019 10.187-8.984 19.324-14.892 6.974-4.294 14.754-5.773 23.345-4.432 8.588 1.34 15.031 4.155 19.325 8.452 2.147 2.678 4.431 4.961 6.852 6.852a74.294 74.294 0 0 0 7.656 5.23c2.676 2.145 5.633 4.029 8.86 5.64l.051.027c1.082 0 2.423-.542 4.02-1.623 3.23-2.147 7.525-5.908 12.883-11.283 6.445-5.908 12.886-10.205 19.324-12.883 6.445-2.68 15.03-1.87 25.769 2.423 5.38 1.615 9.672 3.9 12.885 6.852 3.212 2.957 6.293 5.772 9.25 8.453 2.953 2.677 6.173 4.96 9.66 6.852s7.918 2.827 13.297 2.807c5.374-.015 9.935-.821 13.682-2.421a346.053 346.053 0 0 1 10.87-4.431c3.509-1.357 6.994-2.294 10.463-2.807 3.47-.515 7.628.022 12.47 1.623 5.38 2.147 9.006 5.228 10.875 9.247 1.873 4.023 2.415 8.178 1.625 12.471-.79 4.298-2.674 8.59-5.648 12.884-2.965 4.293-6.591 7.779-10.87 10.46-10.201 6.44-17.987 13.023-23.345 19.738-5.36 6.714-10.725 13.825-16.105 21.331a542.348 542.348 0 0 0-8.86 12.884 201.74 201.74 0 0 0-8.867 14.507 180.862 180.862 0 0 1-10.459 16.902H425.296a563.382 563.382 0 0 0-11.283-18.526 278.556 278.556 0 0 0-10.463-16.103c-3.743-5.358-6.967-10.194-9.66-14.507-5.378-8.055-11.417-15.168-18.116-21.333-6.7-6.168-13.277-11.672-19.737-16.516-6.975-4.828-11.806-11.406-14.504-19.735-2.698-8.331-.284-15.443 7.236-21.332zm441.327 513.732c-4.825 26.848-14.35 52.21-28.576 76.086-14.22 23.876-33.143 44.672-56.76 62.4-23.623 17.727-51.67 31.822-84.154 42.282-32.482 10.463-69.389 15.69-110.716 15.69-42.411 0-79.99-6.038-112.728-18.11-32.744-12.079-60.515-27.778-83.33-47.1-22.812-19.323-40.926-40.935-54.34-64.826-13.415-23.891-22.274-47.65-26.567-71.265-4.828-26.298-5.496-51.535-2.008-75.701 3.488-24.167 9.789-46.847 18.912-68.047 9.12-21.194 20.526-40.654 34.22-58.382 13.689-17.726 28.583-33.561 44.674-47.512 13.969-12.352 26.587-24.02 37.855-35.017 11.268-10.993 20.664-21.057 28.186-30.195 9.12-10.204 17.177-19.864 24.17-28.985h181.162l-.05.05c6.438 8.592 14.494 17.984 24.167 28.189 8.054 9.122 17.987 19.453 29.784 30.996 11.804 11.544 25.493 23.754 41.075 36.638 12.88 11.268 26.17 24.552 39.858 39.857 13.691 15.306 25.639 33.154 35.841 53.542 10.203 20.388 17.316 43.867 21.333 70.44 4.022 26.573 3.35 56.23-2.008 88.97zM620.43 716.712h-74.346l1.15-39.519 75.499-1.152c10.858.774 18.601-1.359 23.235-6.39 4.635-5.031 6.964-11.026 6.988-17.994 0-6.192-2.514-11.81-7.545-16.839-5.028-5.03-12.97-7.545-23.83-7.545h-75.497v-22.082c13.16-12.386 25.161-24.394 36.02-36.016a1930.47 1930.47 0 0 0 27.879-28.474c9.295-9.695 16.272-16.474 20.93-20.334 17.817-15.492 21.696-29.049 11.636-40.67-5.429-6.964-12.407-10.44-20.93-10.44-8.52 0-16.27 3.096-23.236 9.29-3.864 3.094-10.443 8.71-19.734 16.838a1580.807 1580.807 0 0 0-27.885 24.982 6524.697 6524.697 0 0 0-36.02 33.676l-.075-.108-55.763-55.764c-7.754-7.754-13.183-13.569-16.28-17.43-6.195-5.427-14.322-9.876-24.386-13.345-10.063-3.473-18.589-1.338-25.576 6.393-6.196 8.523-7.743 16.85-4.646 24.978 3.095 8.128 6.58 14.52 10.442 19.183l17.438 16.28a7352.195 7352.195 0 0 0 27.879 30.22c11.622 12.394 24.398 25.564 38.328 39.518l-1.15 24.385h-79.001c-6.961 0-12.962 2.71-17.993 8.138-5.03 5.429-7.545 11.242-7.545 17.437 0 6.193 2.332 11.622 6.99 16.28 4.656 4.661 10.854 6.985 18.589 6.985h78.992v40.67h-78.992c-6.966 0-12.962 2.134-17.994 6.391-5.032 4.268-7.544 9.877-7.544 16.843-.773 6.193 1.361 11.422 6.392 15.69 5.032 4.257 11.425 6.39 19.178 6.39h78.999v23.235c.767 10.856 4.25 18.399 10.445 22.636 6.199 4.237 13.94 6.371 23.233 6.392 9.296.773 16.84-2.127 22.639-8.694 5.803-6.569 8.7-13.348 8.7-20.334v-23.234h81.334c7.76 0 14.155-1.748 19.186-5.24 5.03-3.496 7.165-9.111 6.392-16.841.001-16.257-10.839-24.385-32.525-24.385z"/></svg>