<svg class="icon" viewBox="0 0 1024 1024" xmlns="http://www.w3.org/2000/svg" width="200" height="200"><defs><style/></defs><path d="M867.723 661.452c-16.712-4.32-33.683 5.752-37.973 22.438l-25.058 97.424a32.47 32.47 0 0 0-.396 1.726c-7.062 35.785-30.185 77.57-72.117 77.57H291.774c-41.932 0-65.055-41.785-72.117-77.57a33.854 33.854 0 0 0-.396-1.731l-25.053-97.399c-4.284-16.676-21.255-26.722-37.978-22.433-16.682 4.29-26.728 21.291-22.433 37.978l24.84 96.577c12.818 63.35 58.827 126.96 133.137 126.96H732.18c74.31 0 120.319-63.614 133.137-126.96l24.845-96.606c4.294-16.683-5.752-33.684-22.44-37.974zM958.885 377.506c-3.153-32.363-23.317-57.177-54.294-66.599-22.641-6.858-46.587-3.051-67.457 10.742A73841.712 73841.712 0 0 1 720.13 399.06l-98.418-108.344c8.219-14.666 13.433-30.86 15.341-47.902 4.158-37.145-8.026-73.95-33.43-100.978-24.215-25.748-56.928-40.018-92.286-40.186-35.247.026-67.996 13.961-92.21 39.232-25.749 26.854-38.287 63.64-34.399 100.937 1.818 17.366 7.072 33.885 15.448 48.836L302.5 398.186c-38.572-25.484-77.133-50.973-115.715-76.564-20.84-13.773-44.77-17.57-67.452-10.707-30.947 9.413-51.111 34.227-54.258 66.589a53.12 53.12 0 0 0-.777 9.006c0 2.62.33 5.234.985 7.767l50.177 195.08c3.619 14.078 16.29 23.43 30.185 23.424 2.569 0 5.183-.32 7.793-.99 16.682-4.289 26.727-21.29 22.432-37.977l-48.765-189.59c.005-.03.005-.055.005-.08.67-8.828 4.635-11.803 10.34-13.54 4.823-1.441 9.58-.497 14.895 3.027 39.734 26.357 79.493 52.638 119.263 78.91l18.808 12.427c12.849 8.488 29.946 6.33 40.283-5.051l132.492-145.86c10.783-11.874 10.809-29.986.052-41.886-9.336-10.326-15.027-23.068-16.469-36.831-1.98-19.007 4.35-37.699 17.387-51.293 12.535-13.082 28.866-20.002 47.055-20.017 17.91.086 34.587 7.381 46.959 20.535 12.848 13.67 19.001 32.373 16.884 51.313-1.523 13.6-7.189 26.15-16.387 36.288-10.798 11.894-10.793 30.043.005 41.932L691.153 459.93c6.452 7.102 15.367 10.519 24.338 10.194a31.367 31.367 0 0 0 18.057-5.157l18.793-12.422c39.775-26.277 79.534-52.557 119.238-78.89 5.356-3.538 10.086-4.508 14.894-3.06 5.742 1.746 9.706 4.721 10.376 13.55 0 .025 0 .05.005.08l-48.76 189.568c-4.295 16.687 5.752 33.689 22.433 37.978 16.697 4.264 33.688-5.767 37.978-22.433l50.171-195.056a31.12 31.12 0 0 0 .985-7.772c0-2.979-.258-6-.776-9.005z"/><path d="M390.261 514.136c-17.224 0-31.19 13.966-31.19 31.19v30.429c0 17.224 13.965 31.19 31.19 31.19s31.19-13.966 31.19-31.19v-30.429c0-17.224-13.965-31.19-31.19-31.19zM633.697 514.136c-17.225 0-31.19 13.966-31.19 31.19v30.429c0 17.224 13.965 31.19 31.19 31.19s31.19-13.966 31.19-31.19v-30.429c0-17.224-13.966-31.19-31.19-31.19zM588.668 655c-14.529-9.29-33.805-5.061-43.09 9.442-.121.197-13.36 19.422-33.92 19.422-19.982 0-32.41-18.113-33.232-19.351-9.162-14.392-28.226-18.769-42.775-9.742-14.63 9.092-19.118 28.327-10.031 42.957 11.199 18.016 41.921 48.517 86.037 48.517 43.897 0 74.996-30.271 86.453-48.156 9.29-14.508 5.061-33.8-9.442-43.09z"/></svg>