<svg class="icon" width="200" height="200" viewBox="0 0 1024 1024" xmlns="http://www.w3.org/2000/svg"><path d="M750.075 531.733v388.715h-613.59v-818.09h613.59v99.583l102.4-98.496V89.856C852.475 40.235 812.219 0 762.597 0H123.984C74.32 0 34.107 40.235 34.107 89.856v843.093c0 49.622 40.213 89.856 89.856 89.856h638.634c49.622 0 89.878-40.234 89.878-89.856V428.992l-102.4 102.741zM985.104 183.19l-51.99-51.968c-11.498-11.477-30.1-11.477-41.578 0l-41.621 41.6 93.632 93.59 41.557-41.6c11.477-11.499 11.477-30.144 0-41.622zM349.392 674.261l93.035 93.035 479.402-479.21-93.589-93.59zm-18.517 17.579l-73.899 144.192 73.899-144.192zm-53.056 164.97l148.138-69.909-95.082-95.061-73.899 144.192z"/></svg>