<svg class="icon" width="200" height="200" viewBox="0 0 1024 1024" xmlns="http://www.w3.org/2000/svg"><path d="M597.629 773.315h20.15v3.476h-20.15v-3.476zm88.654-21.509h4.986v16.118h-4.986v-16.117zm15.713-.1h5.038v16.218h-5.038v-16.218zm-104.367 28.208h20.15v3.475h-20.15v-3.475zm-437.55-360.226h701.835v482.53H160.08v-482.53zm767.637 554.765H94.284V352.226h833.432v622.227zm-807.755-25.685h782.042V377.904H119.96v570.864zm675.47-613.789L550.807 139.29l18.984-23.715 274.77 219.405zm-568.878 0l244.635-195.69-18.97-23.715-274.792 219.405zM554.846 83.553c0 24.247-19.633 43.874-43.85 43.874-24.231 0-43.88-19.627-43.88-43.874 0-24.215 19.649-43.865 43.88-43.865 24.217 0 43.85 19.65 43.85 43.865z"/></svg>