<svg class="icon" width="200" height="200" viewBox="0 0 1024 1024" xmlns="http://www.w3.org/2000/svg"><path d="M855.424 220.8H803.2v-52.245C803.2 75.605 727.616 0 634.645 0h-466.09C75.605 0 0 75.605 0 168.555v466.112C0 727.573 75.605 803.2 168.555 803.2h52.224v52.267c0 92.906 75.605 168.533 168.554 168.533h466.134c92.906 0 168.533-75.627 168.49-168.533V389.355c0-92.95-75.626-168.555-168.533-168.555zM42.731 634.667V168.555c0-69.376 56.448-125.824 125.824-125.824h466.09c69.376 0 125.803 56.469 125.803 125.824v466.112c0 69.354-56.427 125.781-125.803 125.781h-466.09c-69.376 0-125.824-56.405-125.824-125.781zm938.496 220.8c0 69.376-56.448 125.802-125.803 125.802H389.312c-69.376 0-125.824-56.448-125.824-125.802V803.2h371.157c92.971 0 168.555-75.627 168.555-168.533V263.509h52.203c69.376 0 125.802 56.448 125.802 125.824v466.134z"/></svg>