<svg class="icon" width="200" height="200" viewBox="0 0 1024 1024" xmlns="http://www.w3.org/2000/svg"><path d="M480 64C215.04 64 0 279.04 0 544c0 264.96 215.04 480 480 480s480-215.04 480-480c0-264.96-215.04-480-480-480zm-32 300.16L320.64 745.6c-4.48 12.8-16.64 21.76-30.08 21.76s-25.6-8.96-30.08-21.76L133.12 364.16c-5.76-16.64 3.2-34.56 19.84-40.32 16.64-5.76 34.56 3.2 40.32 19.84l97.28 291.2 97.28-291.2c5.76-16.64 23.68-25.6 40.32-19.84 16 5.76 25.6 23.68 19.84 40.32zm160.64 148.48C704 512.64 768 563.84 768 640c0 78.08-60.8 127.36-159.36 127.36-92.16 0-159.36-53.76-159.36-127.36 0-17.28 14.08-32 32-32s32 14.08 32 32c0 37.12 39.04 63.36 95.36 63.36 35.84 0 95.36-8.32 95.36-63.36 0-60.8-79.36-63.36-95.36-63.36-95.36 0-159.36-51.2-159.36-127.36 0-78.72 60.8-127.36 159.36-127.36 92.16 0 159.36 53.76 159.36 127.36 0 17.28-14.08 32-32 32s-32-14.08-32-32c0-37.12-39.04-63.36-95.36-63.36-35.84 0-95.36 8.32-95.36 63.36 0 60.8 79.36 63.36 95.36 63.36z"/></svg>