<svg class="icon" width="200" height="200" viewBox="0 0 1024 1024" xmlns="http://www.w3.org/2000/svg"><path fill="#333" d="M782.791 643.982c-47.787 0-91.022 22.756-118.329 59.165L382.293 555.236c4.551-13.654 4.551-27.307 4.551-40.96 0-15.93-2.275-29.583-6.826-43.236L614.4 304.924c20.48 13.654 43.236 22.756 70.542 22.756 65.991 0 118.33-52.338 118.33-118.329S750.932 93.298 684.941 93.298s-118.329 52.338-118.329 118.329c0 11.377 2.276 22.755 6.827 34.133L343.609 409.6c-27.307-25.031-61.44-40.96-102.4-40.96-81.92 0-147.911 65.991-147.911 147.911s65.99 147.911 147.91 147.911c40.96 0 77.37-15.929 104.676-43.235l291.272 152.462c0 6.827-2.276 13.653-2.276 20.48 0 81.92 65.991 147.911 147.911 147.911s147.911-65.991 147.911-147.911-65.99-150.187-147.91-150.187z"/></svg>