<svg class="icon" width="200" height="200" viewBox="0 0 1024 1024" xmlns="http://www.w3.org/2000/svg"><path fill="#333" d="M671.744 64c-159.04 0-288 128.96-288 288 0 57.28 17.216 110.336 46.016 155.136L81.984 854.912c-24 24-24 62.912 0 86.848 23.936 24 62.848 24 86.848 0L280.32 830.272l57.344 57.344c10.368 10.368 27.2 10.368 37.568 0 10.432-10.432 10.432-27.264 0-37.632l-57.344-57.344 90.368-90.368 57.344 57.344c10.368 10.368 27.2 10.368 37.632 0 10.368-10.432 10.368-27.264 0-37.632l-57.344-57.344 70.656-70.656c44.864 28.8 97.984 46.016 155.2 46.016 159.04 0 288-128.96 288-288s-128.96-288-288-288zm0 384c-52.992 0-96-43.008-96-96s43.008-96 96-96 96 43.008 96 96-43.008 96-96 96z"/></svg>