<svg class="icon" width="200" height="200" viewBox="0 0 1024 1024" xmlns="http://www.w3.org/2000/svg"><path fill="#333" d="M939.015 464.918a32.347 32.347 0 0 1-9.728 18.9c-5.231 4.986-61.84 32.768-256.69 17.92-21.437-1.648-65.447-4.875-86.884-9.617-19.367-4.296-33.191-.178-51.245-2.382-103.09-12.533-123.97 5.21-178.087 44.522-54.227 22.95-107.564 76.933-129.803 122.613l78.982 328.503a32.5 32.5 0 0 1-20.859 36.998 32.278 32.278 0 0 1-39.401-15.516l-1.202-2.293a32.59 32.59 0 0 1-3.095-8.837L22.513 39.535a32.88 32.88 0 0 1-.2-11.62l.089-.467A32.3 32.3 0 0 1 53.678.268C69.261 0 82.818 10.951 85.912 26.311l11.575 57.545C185.04 43.387 249.596 18.432 322.3 23.975c39.758 3.05 80.607 11.932 124.839 27.203 39.58 13.668 78.247 31.165 114.131 48.061 42.23 19.879 107.854 31.633 151.174 34.927 62.486 4.764 102.445-7.502 162.66-36.44 45.724-21.995 73.038-45.88 73.305-46.125a32.145 32.145 0 0 1 36.73-4.252c11.932 6.456 18.544 19.745 16.63 33.213l-62.754 384.356zM707.57 198.878c-51.111-3.917-124.327-17.652-173.68-40.87-70.566-33.214-140.22-63.51-216.464-69.32-32.3-2.472-34.415 3.25-83.39 15.671-43.942 11.13-86.884 26.891-123.37 45.078l93.608 440.075c28.293-31.677 86.238-103.58 129.848-122.034 59.058-24.999 132.162-53.782 199.947-48.617 21.17 1.625 43.23 4.941 65.513 9.906 18.477 4.073 59.437 6.856 77.869 8.258 140.822 10.752 171.43 29.318 199.368 6.59l50.666-299.921c-53.916 29.985-116.491 63.065-219.915 55.185zM434.383 556.545c17.297 0 33.37 14.024 33.37 31.366l-.067 235.742 85.214 73.283 92.873-73.283.044-235.742c0-17.342 16.073-31.366 33.37-31.366 17.296 0 33.413 14.024 33.413 31.366l-.045 102.177s74.44-67.384 75.865-67.384h137.684c17.297 0 31.32 14.025 31.32 31.344v4.14c0 17.32-14.023 31.366-31.32 31.366H803.58l-90.98 68.875v42.607l222.564.356c.957 0 22.26-10.93 22.26 31.032v80.273c0 17.34-4.963 44.521-22.26 44.521l-44.522 44.522c0 17.32-14.002 22.239-31.299 22.239H721.66c-17.297 0-31.366-4.92-31.366-22.239v-22.26c0-17.32 14.07-22.373 31.366-22.373l124.46.111 44.522-44.521.023-44.811h-197.32c-.446.222-.869.49-1.336.69 0 0-117.716 88.642-135.28 88.642-25.444 0-133.565-89.043-133.565-89.043-8.348 0-22.26-22.484-22.26-44.522l.088-235.742c0-17.342 16.073-31.366 33.391-31.366z"/></svg>