<svg class="icon" width="200" height="200" viewBox="0 0 1024 1024" xmlns="http://www.w3.org/2000/svg"><path d="M127.906 834.398c-42.886 0-76.744-33.857-76.744-75.239V188.85h844.932c42.134 0 76.744 33.858 76.744 75.24v492.813c0 13.543 11.285 24.83 25.58 24.83S1024 770.444 1024 756.901V264.088c0-69.22-57.181-125.649-127.906-125.649H0v619.968c0 69.22 57.181 125.649 127.906 125.649h783.236c14.295 0 25.581-11.286 25.581-24.829 0-13.543-11.286-24.829-25.581-24.829H127.906zm436.385-151.982c19.562 0 34.61 15.8 34.61 34.61 0 19.562-15.8 34.61-34.61 34.61-19.562 0-34.61-15.8-34.61-34.61s15.048-34.61 34.61-34.61zm-141.449 35.362a34.61 34.61 0 1 0 69.22 0 34.61 34.61 0 1 0-69.22 0zm-106.087 0a34.61 34.61 0 1 0 69.22 0 34.61 34.61 0 1 0-69.22 0zm355.88-35.362c19.562 0 34.61 15.8 34.61 34.61 0 19.562-15.8 34.61-34.61 34.61-19.562 0-34.61-15.8-34.61-34.61-.752-18.81 15.048-34.61 34.61-34.61z"/></svg>