<?xml version="1.0" standalone="no"?><!DOCTYPE svg PUBLIC "-//W3C//DTD SVG 1.1//EN" "http://www.w3.org/Graphics/SVG/1.1/DTD/svg11.dtd"><svg class="icon" width="200px" height="200.00px" viewBox="0 0 1024 1024" version="1.1" xmlns="http://www.w3.org/2000/svg"><path fill="#333333" d="M511.705787 64.021106c-247.281841 0-447.742436 200.453405-447.742436 447.724091s200.461618 447.724091 447.742436 447.724091 447.742436-200.453405 447.742436-447.724091S758.986606 64.021106 511.705787 64.021106zM348.769322 168.282704c3.763874-2.682086 8.05682-3.75451 12.883953-3.224438 4.828156 0.535189 9.928524 1.608637 15.306218 3.224438 5.374624 1.611707 10.607003 3.227508 15.690997 4.843308 5.083993 1.611707 9.782185 1.87879 14.094574 0.798179 7.521609-1.6158 13.154117-4.430916 16.901618-8.452509 3.743407-4.018523 10.187431-8.983605 19.323883-14.892175 6.974117-4.293793 14.754633-5.77247 23.345641-4.431939 8.587937 1.340531 15.030937 4.155646 19.324906 8.452509 2.146984 2.677992 4.431097 4.960988 6.852339 6.852058 2.422265 1.886977 4.974495 3.632737 7.655667 5.229095 2.676055 2.145873 5.632508 4.02978 8.860148 5.641487l0.051167 0.026606c1.081679 0 2.422265-0.542352 4.018688-1.622964 3.231733-2.146896 7.525702-5.90857 12.883953-11.282974 6.445047-5.90857 12.886-10.205433 19.323883-12.883425 6.445047-2.680039 15.030937-1.870604 25.768929 2.423189 5.379741 1.614777 9.671663 3.89982 12.884976 6.852058 3.21229 2.956332 6.293591 5.771447 9.250044 8.452509 2.953383 2.676969 6.172836 4.960988 9.660406 6.852058s7.917644 2.827395 13.296362 2.806929c5.374624-0.014326 9.935687-0.820692 13.682164-2.421142 3.741361-1.596358 7.367083-3.075035 10.870004-4.430916 3.509061-1.356904 6.994584-2.293229 10.462711-2.806929 3.471197-0.514723 7.628037 0.022513 12.47052 1.622964 5.379741 2.146896 9.005464 5.228071 10.875121 9.247618 1.872727 4.022617 2.415102 8.17724 1.625077 12.471033-0.791048 4.297886-2.674009 8.589632-5.647858 12.883425-2.965663 4.29277-6.591385 7.779174-10.870004 10.460236-10.201757 6.440689-17.98739 13.022595-23.345641 19.73753-5.359274 6.714935-10.724688 13.82589-16.104429 21.331841-2.676055 3.761674-5.633531 8.055466-8.861171 12.883425-3.232757 4.827959-6.184093 9.664104-8.866288 14.507412-3.226617 5.90857-6.71521 11.542894-10.458618 16.901948L425.296318 296.335149c-3.758758-6.439666-7.521609-12.616342-11.283436-18.525935-3.232757-5.377474-6.716234-10.744715-10.462711-16.102746-3.743407-5.358031-6.966954-10.194176-9.659383-14.507412-5.378718-8.055466-11.417495-15.168468-18.116332-21.332864-6.700884-6.16849-13.277942-11.67183-19.737315-16.516162-6.975141-4.827959-11.806367-11.405771-14.503913-19.735483C338.834658 181.28381 341.248737 174.171831 348.769322 168.282704zM790.096389 682.015162c-4.825086 26.847461-14.350411 52.210106-28.575973 76.085886-14.220446 23.87578-33.143176 44.672432-56.760004 62.400189-23.622968 17.726733-51.66987 31.821753-84.15401 42.281989-32.482093 10.462283-69.389143 15.690354-110.716034 15.690354-42.41164 0-79.990006-6.03853-112.727936-18.110473-32.74407-12.079106-60.515692-27.777647-83.331238-47.099714-22.811453-19.323091-40.924715-40.935318-54.339786-64.826448-13.414047-23.89113-22.273172-47.64923-26.566117-71.26509-4.828156-26.297946-5.496403-51.534723-2.007809-75.701123 3.48757-24.166399 9.788325-46.846958 18.911473-68.046792 9.120079-21.193695 20.526317-40.653909 34.219738-58.381665 13.689328-17.726733 28.583137-33.561373 44.674262-47.512107 13.968702-12.352329 26.586584-24.02109 37.854671-35.017538 11.268086-10.992355 20.664469-21.056572 28.186077-30.194696 9.120079-10.204409 17.176898-19.86442 24.170459-28.985148l181.162296 0-0.050144 0.050142c6.437883 8.591679 14.49368 17.983583 24.166366 28.189016 8.054773 9.121751 17.98739 19.453051 29.784547 30.995945 11.803297 11.543917 25.492625 23.754007 41.075147 36.638455 12.87986 11.267625 26.169058 24.551162 39.857363 39.856753 13.691375 15.305591 25.638964 33.154098 35.841745 53.541427 10.202781 20.388353 17.31505 43.86709 21.332715 70.440305C796.125956 619.618043 795.453616 649.27448 790.096389 682.015162zM620.430386 716.712405l-74.346241 0 1.150243-39.519062 75.498531-1.152243c10.857724 0.773619 18.601399-1.358951 23.235119-6.390547 4.634744-5.030573 6.963884-11.025101 6.988444-17.993816 0-6.192026-2.514366-11.808954-7.545146-16.838503-5.028733-5.02955-12.970938-7.544837-23.830708-7.544837l-75.496485 0 0-22.081924c13.159234-12.386098 25.16106-24.394596 36.019807-36.016285 9.290978-9.29776 18.589119-18.785855 27.879073-28.474518 9.295071-9.694803 16.272259-16.473183 20.929516-20.334117 17.817514-15.491833 21.696004-29.048593 11.636492-40.669258-5.428862-6.964622-12.407073-10.440793-20.930539-10.440793-8.520397 0-16.269189 3.096525-23.235119 9.289574-3.864163 3.094478-10.443268 8.711406-19.734245 16.838503-9.297118 8.130168-18.590142 16.45681-27.885213 24.981974-10.85363 10.06217-22.858527 21.285792-36.020831 33.675984l-0.073681-0.107447-55.763263-55.764048c-7.753909-7.753591-13.182771-13.56904-16.280445-17.429974-6.194326-5.426593-14.321757-9.875928-24.385363-13.344936-10.063605-3.473101-18.589119-1.338485-25.57654 6.392594-6.19535 8.523117-7.742652 16.850783-4.646 24.977881 3.095628 8.128121 6.580128 14.519692 10.442244 19.182898l17.437852 16.280802c8.525513 9.295714 17.815468 19.370163 27.879073 30.220279 11.622165 12.393261 24.397643 25.563212 38.328481 39.517015l-1.151267 24.385387L401.953747 628.352985c-6.960814 0-12.961727 2.709715-17.992507 8.138354-5.030779 5.428639-7.545146 11.242042-7.545146 17.437138 0 6.192026 2.33221 11.621688 6.989468 16.279778 4.656234 4.66116 10.854654 6.985088 18.589119 6.985088l78.992242 0 0 40.669258-78.992242 0c-6.965931 0-12.961727 2.134617-17.99353 6.391571-5.031803 4.26821-7.544122 9.876951-7.544122 16.842597-0.772628 6.193049 1.361053 11.422144 6.391832 15.689331 5.031803 4.257977 11.424658 6.391571 19.178567 6.391571l78.998382 0 0 23.234167c0.767511 10.856255 4.249965 18.399045 10.445314 22.636556 6.19842 4.236488 13.939025 6.371104 23.233073 6.391571 9.296094 0.772596 16.839193-2.127454 22.638507-8.694009 5.803407-6.568602 8.699482-13.348006 8.699482-20.334117l0-23.234167 81.334686 0c7.760049 0 14.154951-1.747807 19.185731-5.240351 5.029756-3.495614 7.165484-9.110495 6.392856-16.84055C652.956483 724.839503 642.116156 716.712405 620.430386 716.712405z" /></svg>