<svg class="icon" width="200" height="200" viewBox="0 0 1024 1024" xmlns="http://www.w3.org/2000/svg"><path d="M664.646 222.609l-95.404 184.447c-31.801 50.882-44.522 82.683-50.882 95.404-19.08-38.162-69.962-133.566-152.646-279.851h-95.403L448.398 521.54H308.472v63.603h165.367v89.043H308.472v69.963h165.367v133.565h82.683V744.15h159.006v-69.963H556.522v-89.043h159.006V521.54H575.602L753.69 222.61h-89.043zM206.708 693.267h12.72c12.721 0 19.081-6.36 25.442-12.72 6.36-12.72 0-31.802-12.72-38.162-76.324-38.161-127.206-89.043-127.206-139.925 0-25.441 6.36-44.522 25.441-69.963 6.36-12.72 6.36-25.441-6.36-38.162-6.36 0-25.441 0-31.801 12.72-31.802 31.802-44.522 63.603-44.522 101.765 0 76.323 57.242 139.925 159.006 184.447zm686.907-292.571c-12.72 12.72-12.72 25.44 0 38.161 19.08 25.441 31.801 44.522 31.801 69.963 0 50.882-38.161 82.683-69.963 108.124-12.72 12.72-31.8 19.08-50.882 31.801-12.72 6.36-19.08 19.081-12.72 38.162 6.36 12.72 12.72 12.72 25.44 12.72h12.721c19.081-12.72 44.522-19.08 57.243-31.8 63.602-44.523 95.403-95.405 95.403-152.647 0-38.161-12.72-69.963-44.521-101.764-12.72-19.08-31.802-19.08-44.522-12.72zm-750.51 0c19.081 12.72 38.162 25.44 57.243 31.8 12.72 6.361 31.801 0 38.161-12.72 6.36-12.72 0-31.8-12.72-38.161-19.08-6.36-38.162-12.72-50.882-25.441-31.801-25.441-69.963-57.242-69.963-108.124 0-108.125 190.808-197.168 407.056-197.168s407.056 89.043 407.056 197.168c0 50.882-38.162 82.683-69.963 108.124-12.72 12.72-31.801 19.08-50.882 31.801-12.72 6.36-19.08 19.08-12.72 38.162 6.36 12.72 12.72 12.72 25.44 12.72h12.721c19.08-12.72 44.522-19.08 57.242-31.801 63.603-44.522 95.404-95.404 95.404-152.646C976.298 108.124 772.77 0 512 0S47.702 108.124 47.702 248.05c0 57.242 31.801 108.124 95.404 152.646zm769.59 279.85c-12.72 6.36-12.72 25.442-6.36 38.162 12.72 19.08 19.081 38.162 19.081 57.242 0 50.882-44.522 101.764-127.205 139.926-76.323 38.161-178.087 57.242-286.211 57.242-108.124 0-209.888-19.08-286.211-57.242-76.323-38.162-127.205-89.044-127.205-139.926 0-19.08 6.36-31.8 12.72-50.882 6.36-12.72 6.36-31.8-6.36-38.161-12.72-6.36-31.801-6.36-38.161 6.36-12.72 25.441-25.441 50.882-25.441 82.683 0 76.323 57.242 139.926 152.646 184.448C276.67 998.559 384.795 1024 499.28 1024c114.484 0 222.608-19.08 305.291-63.602 101.764-44.522 152.646-114.485 152.646-184.448 0-31.8-6.36-57.242-25.44-82.683 6.36-19.08-6.36-25.44-19.081-12.72z"/></svg>