<svg class="icon" width="200" height="200" viewBox="0 0 1024 1024" xmlns="http://www.w3.org/2000/svg"><path d="M824.315 659.107c-24.523-14.16-52.375-21.641-80.547-21.641a162.213 162.213 0 0 0-79.614 20.93c-19.85 11.21-37.06 26.564-50.537 44.918L420.562 591.857c21.163-37.142 26.732-80.292 15.66-121.62a162.31 162.31 0 0 0-15.602-38.124l192.998-111.426c13.476 18.355 30.687 33.706 50.537 44.919a162.197 162.197 0 0 0 79.614 20.93c28.172 0 56.024-7.483 80.547-21.641 37.325-21.55 64.024-56.345 75.18-97.976 11.156-41.632 5.432-85.115-16.12-122.44-14.426-24.985-35.262-45.653-60.258-59.772a162.203 162.203 0 0 0-79.614-20.93c-28.17 0-56.023 7.483-80.545 21.641-71.865 41.492-99.74 130.298-67.076 204.582l-196.2 113.276c-11.06-12.107-24.032-22.58-38.642-31.015-24.522-14.157-52.374-21.64-80.546-21.64-27.84 0-55.37 7.236-79.614 20.93-24.996 14.118-45.832 34.786-60.257 59.773-21.55 37.325-27.275 80.808-16.12 122.438s37.855 76.427 75.181 97.977c24.52 14.156 52.371 21.64 80.544 21.64h.009c27.837 0 55.365-7.236 79.607-20.928 14.897-8.415 28.3-19.17 39.766-31.766l196.265 113.312c-14.779 33.496-17.71 70.738-8.099 106.61 11.156 41.631 37.857 76.427 75.182 97.976 24.52 14.157 52.371 21.64 80.544 21.641h.008c27.837 0 55.365-7.236 79.608-20.93 24.995-14.117 45.831-34.785 60.257-59.772 21.552-37.325 27.276-80.808 16.12-122.438-11.157-41.633-37.857-76.428-75.181-97.977zM682.59 119.422c18.561-10.717 39.624-16.382 60.912-16.382 43.553 0 84.118 23.4 105.867 61.07 16.307 28.243 20.638 61.144 12.197 92.645-8.44 31.5-28.642 57.828-56.886 74.133-18.561 10.717-39.625 16.381-60.913 16.381-43.553 0-84.118-23.4-105.867-61.069-33.659-58.3-13.611-133.117 44.69-166.778zM280.23 634.113c-21.29 0-42.354-5.664-60.912-16.38-28.244-16.306-48.446-42.634-56.886-74.134-8.441-31.5-4.11-64.401 12.196-92.643 21.748-37.67 62.314-61.071 105.866-61.071 21.289 0 42.352 5.664 60.913 16.38 28.243 16.306 48.446 42.634 56.887 74.134 8.439 31.5 4.107 64.404-12.198 92.645-21.75 37.672-62.315 61.073-105.866 61.07zM849.37 859.89c-21.751 37.671-62.315 61.072-105.866 61.07-21.29 0-42.355-5.665-60.913-16.38-28.242-16.308-48.446-42.635-56.886-74.135s-4.11-64.402 12.196-92.643c21.75-37.67 62.315-61.071 105.867-61.071 21.289 0 42.353 5.665 60.913 16.38 28.244 16.307 48.446 42.635 56.886 74.135 8.441 31.5 4.109 64.401-12.197 92.644z"/></svg>