<?xml version="1.0" standalone="no"?><!DOCTYPE svg PUBLIC "-//W3C//DTD SVG 1.1//EN" "http://www.w3.org/Graphics/SVG/1.1/DTD/svg11.dtd"><svg t="1520318783711" class="icon" style="" viewBox="0 0 1024 1024" version="1.1" xmlns="http://www.w3.org/2000/svg" p-id="1953" xmlns:xlink="http://www.w3.org/1999/xlink" width="200" height="200"><defs><style type="text/css"></style></defs><path d="M695.8592 401.9968v303.1552a16.64 16.64 0 0 1-5.0944 11.9296l-48.1536 46.2592a16.6144 16.6144 0 0 1-23.0656 0l-53.1968-51.1232-53.1968 51.1232a16.64 16.64 0 0 1-23.0912 0l-53.1712-51.1232-51.2768 49.28a16.64 16.64 0 0 1-23.0656 0l-50.2528-48.3072a16.4608 16.4608 0 0 1-5.0944-11.9296V342.912A61.4656 61.4656 0 0 1 368.7168 281.6l0.4096 0.0256 0.4352-0.0256h309.6576C714.0608 281.6 742.4 309.0944 742.4 342.912c0 28.1856-19.7632 51.968-46.5408 59.0848zM366.464 309.76h-0.0768l-0.4608-0.0256-0.4096 0.0256a28.928 28.928 0 0 0-28.928 28.8512v359.7824l34.432 33.0752 52.48-50.432a17.0752 17.0752 0 0 1 23.6544 0l54.4512 52.352 54.4768-52.352a17.0496 17.0496 0 0 1 23.6288 0l54.4768 52.352 32.2816-31.0528V401.408H366.3872a16.9984 16.9984 0 1 1 0-33.9456c16.896 0 30.6432-12.9536 30.6432-28.8512 0-15.872-13.696-28.8-30.5664-28.8512z m314.9312 1.3312l-265.3952 0.4352c4.5568 8.5248 7.2704 16.1792 7.3216 33.4592 0 4.6336 0 20.0448-16.1536 27.6992l265.0624 1.664 8.96-0.8192c16.64 0 34.2272-14.1824 34.2272-29.8496 0-15.6672-17.3824-32.5888-34.0224-32.5888z m-284.7744 147.5328h202.1376c3.6864 0 6.656 4.8128 6.656 10.752 0 5.9392-2.9696 10.752-6.656 10.752h-202.1376c-3.6864 0-6.656-4.8128-6.656-10.752 0-5.9392 2.9696-10.752 6.656-10.752z m0 49.664h202.1376c3.6864 0 6.656 4.8128 6.656 10.7776 0 5.9392-2.9696 10.752-6.656 10.752h-202.1376c-3.6864 0-6.656-4.8128-6.656-10.752 0-5.9648 2.9696-10.7776 6.656-10.7776z m0 49.6896h202.1376c3.6864 0 6.656 4.8384 6.656 10.7776 0 5.9648-2.9696 10.752-6.656 10.752h-202.1376c-3.6864 0-6.656-4.7872-6.656-10.752 0-5.9392 2.9696-10.7776 6.656-10.7776z" fill="" p-id="1954"></path><path d="M512 1024C229.2224 1024 0 794.7776 0 512S229.2224 0 512 0s512 229.2224 512 512-229.2224 512-512 512z m0-998.4C243.3792 25.6 25.6 243.3792 25.6 512s217.7792 486.4 486.4 486.4 486.4-217.7792 486.4-486.4S780.6208 25.6 512 25.6z" fill="" p-id="1955"></path><path d="M512 1024C229.2224 1024 0 794.7776 0 512S229.2224 0 512 0s512 229.2224 512 512-229.2224 512-512 512z m0-998.4C243.3792 25.6 25.6 243.3792 25.6 512s217.7792 486.4 486.4 486.4 486.4-217.7792 486.4-486.4S780.6208 25.6 512 25.6z"  p-id="1956"></path></svg>