<?xml version="1.0" standalone="no"?><!DOCTYPE svg PUBLIC "-//W3C//DTD SVG 1.1//EN" "http://www.w3.org/Graphics/SVG/1.1/DTD/svg11.dtd"><svg class="icon" width="200px" height="200.00px" viewBox="0 0 1024 1024" version="1.1" xmlns="http://www.w3.org/2000/svg"><path fill="#333333" d="M503.307941 274.916199c53.425577 4.301084 101.100254 20.716354 133.033403 67.188246 17.248306 25.093387 20.734942 53.572078 16.351913 83.272341-0.375745 2.570257-0.598594 5.216863-1.355081 7.685789-1.57793 5.165898 0.533638 7.380396 5.452303 8.602168 17.8469 4.453381 21.155656 8.907361 21.250592 27.027475 0.082944 16.771629-4.434993 32.677844-9.683435 48.355015-4.142192 12.368614-12.41958 20.207299-25.978387 20.944799-5.274424 0.28081-7.253082 2.647205-8.52522 7.711771-13.482859 53.852288-48.018244 90.22063-96.716226 114.066463-22.243919 10.892615-44.220019 6.540565-64.91079-5.267429-36.355351-20.767919-63.987417-49.60217-79.785306-88.871545-2.475322-6.133841-4.466572-12.597459-5.643574-19.113041-1.005318-5.497273-3.595162-7.838685-8.856595-8.90796-11.229786-2.366396-19.303912-9.008892-23.961154-19.570731-7.431362-16.923926-11.751433-34.560968-11.185416-53.164754 0.426311-13.869996 5.681548-20.461527 19.075067-22.726991 5.757496-0.966944 6.012324-3.664515 5.713127-8.296375-1.457012-22.853905-2.417361-45.733792 2.850467-68.308087 9.473577-40.566896 31.246215-60.54535 72.481657-66.47533 3.442066-0.508655 6.934898-1.323103 10.357977-1.196189 8.328353 0.407124 14.169393-0.635969 17.184749-10.714136 2.570857-8.52562 12.012855-11.172425 20.67838-12.139769C495.144476 274.534458 499.254689 274.916199 503.307941 274.916199L503.307941 274.916199 503.307941 274.916199zM575.070086 840.872081c3.735467-10.001219 7.514905-19.952472 11.128455-29.928708 11.68208-32.169189 23.439108-64.337179 34.822191-96.6083 2.538279-7.202117 5.293411-9.288702 13.227032-6.362686 29.357096 10.892615 59.368548 19.978455 88.470817 31.583586 25.124965 10.027202 47.240971 23.617987 58.890872 49.678118 5.185484 11.580149 7.78772 23.668952 7.93462 36.292394 0.094936 9.008892-0.006995 17.992801-0.050965 26.97671-0.114922 20.792902-15.556453 36.088332-36.400321 36.113315-160.194988 0.025982-320.389376-0.050965-480.571373 0.254827-17.795934 0.024983-31.067936-5.777083-38.620215-22.370833-0.947957-2.112568-2.176125-4.377032-2.195112-6.566548-0.184875-19.952472-2.436948-40.006675 3.282774-59.70532 9.13021-31.379725 32.028685-48.914836 60.946478-59.756285 30.406384-11.40127 61.257867-21.658316 91.772578-32.779775 6.928702-2.519292 9.600891-0.559621 11.948899 6.056893 14.111832 39.931726 28.64358 79.709757 43.035622 119.538553 0.871409 2.392378 1.851145 4.784756 2.767524 7.126168 3.493232 0.254827 4.002286-2.519292 5.057971-4.326067 11.478218-19.494783 22.663034-39.193227 34.364101-58.561096 3.295765-5.446307 1.431429-8.169461-2.78711-11.503201-12.711781-10.052185-19.710636-23.286212-20.81129-39.523203-0.789065-11.808994 4.650847-20.437144 14.735409-25.577658 21.951117-11.147442 44.581574-12.139769 66.965397-1.374068 14.289312 6.871341 18.77527 17.382215 15.893224 33.033603-2.615227 14.099441-10.091158 25.195917-20.836873 34.255775-3.505623 2.977981-5.504268 5.599204-2.698171 10.231063 12.597459 20.868851 25.03003 41.81445 37.55154 62.708284C573.142393 840.159564 573.85491 840.287477 575.070086 840.872081L575.070086 840.872081 575.070086 840.872081zM714.237331 134.992467c43.818291 3.257791 84.086789 18.095132 114.181185 53.674009 18.011788 21.275975 24.603319 46.929582 22.662635 74.644791-0.502659 7.202517-0.578608 14.506565-2.742141 21.505419-1.145224 3.690498 0.394732 4.962635 4.161179 5.624187 16.714667 2.901433 20.3542 7.355413 20.570054 24.253956 0.209858 17.407598-4.472967 33.823068-10.331995 49.958528-3.563584 9.798357-11.274356 14.608096-21.378505 15.040802-5.771087 0.254228-7.647815 2.748536-9.021883 8.143878-12.89026 50.390635-44.976306 84.493913-91.352863 106.202795-0.266819 0.127514-0.534638 0.228845-0.801457 0.330776-17.93584 7.04962-19.329894 5.777083-16.981487-12.801321 3.059925-24.279538-0.961348-46.853633-18.285602-65.507986-3.340735-3.588567-4.994614-7.33003-5.090549-12.369014-1.291125-70.190811-37.080859-118.062154-97.644597-149.518227-15.143733-7.889651-15.302625-7.456944-12.770342-24.533766 3.646528-24.635697 11.827981-46.72612 34.446645-60.519768 14.538143-8.856995 30.801117-11.68208 47.432641-12.41958 5.713127-0.254827 8.704099-1.628896 10.332994-7.660806 2.309434-8.627551 10.008214-11.579549 17.97981-13.055548C703.834384 135.196329 708.256386 135.348626 714.237331 134.992467L714.237331 134.992467 714.237331 134.992467zM295.840204 135.119781c48.946614 4.784756 92.217676 20.461527 121.18004 63.268504 9.626473 14.201371 14.23275 30.234501 15.804285 47.336706 0.617182 6.744427-1.654278 9.340667-7.92103 10.587222-23.789271 4.73379-45.345656 14.201371-63.122603 31.15088-24.590727 23.465091-35.08921 53.394199-39.020944 86.148391-1.25375 10.332395-1.400051 20.817885-1.845349 31.252211-0.165488 3.639532-0.97334 6.642496-3.607554 9.391033-18.222045 19.113041-23.216659 42.068877-19.437222 67.569588 2.614827 17.71339 0.254427 19.799976-16.300948 12.750755-47.069487-20.054803-78.755004-54.208647-92.771301-103.784834-1.953076-6.948289-4.536324-11.121859-12.069817-12.445562-7.825694-1.399451-13.367337-6.820376-16.993878-13.819031-9.021883-17.407598-12.775738-36.011584-11.796002-55.480784 0.489668-9.82374 5.802466-16.033529 15.829667-18.095132 5.611595-1.145224 7.126168-3.715481 6.775806-8.856395-0.941362-14.175789-1.399451-28.223864-0.458089-42.501584 3.506023-53.292268 29.11526-79.607426 82.668151-82.865018 5.910393-0.356358 9.250728-1.450616 11.051507-7.965599 2.487913-8.932943 10.720731-11.656097 18.998519-12.9796 4.281497-0.661551 8.697103-0.458089 13.030166-0.661551l0 0L295.840204 135.119981zM189.039215 693.54237c-31.322763 0-62.651322 0.050965-93.974086-0.024983-15.759715-0.024983-28.815463-10.765701-30.380802-26.544003-1.412642-14.074458-1.679861-28.402743 0.445098-42.502184 5.166497-34.408671 26.423485-56.040804 57.25598-68.816143 23.548034-9.773374 47.719046-18.044766 71.648223-26.875578 10.548848-3.919343 10.644183-3.842395 14.105437 6.540565 11.853363 35.477946 23.649366 70.954693 35.51592 106.432639 0.8844 2.646206 0.667947 6.896324 3.61355 7.355013 3.639532 0.584604 4.510942-3.89436 6.16522-6.362686 9.295698-14.048475 18.158688-28.325795 27.632265-42.221374 3.435671-5.039583 2.55167-7.609841-1.985054-11.274356-11.433248-9.238736-19.093455-20.945799-20.003438-36.16448-0.534638-8.983909 3.372114-15.728336 10.981555-20.258265 10.29442-6.184807 21.556385-8.118496 33.454318-7.33003 3.753455 0.254827 5.707131 2.316429 7.036829 5.47129 5.720122 13.565802 13.959535 25.399579 25.080995 35.070023 3.308757 2.851067 3.308757 5.599204 1.087862 9.08584-3.632537 5.701135-7.838086 10.994546-13.322967 14.786974-4.797148 3.33374-4.727195 6.107859-1.692253 10.561839 12.852286 18.985128 25.411771 38.124152 38.136943 57.186028 5.92938 8.881978 5.802466 9.670443-4.097622 13.15708-19.679058 6.948289-39.809809 12.597459-59.050364 20.817885-4.371036 1.85874-9.009292 1.934688-13.685721 1.934688C251.684142 693.517387 220.361979 693.54237 189.039215 693.54237L189.039215 693.54237 189.039215 693.54237zM831.555389 693.568353c-30.464145 0-60.9145-0.177879-91.37185 0.126914-8.106504 0.076948-15.416548-2.239482-22.796544-4.784756-17.274288-5.92898-34.536584-11.935907-51.78469-17.916852-9.289702-3.205826-9.620477-4.148188-4.205149-12.571477 12.450559-19.240955 24.743224-38.582841 37.436618-57.644717 3.199831-4.809739 3.626541-8.016565-1.596917-11.325321-2.411365-1.526965-4.359045-3.817412-6.337703-5.929979-8.633147-9.237737-8.449271-10.10315 0.394732-19.036094 8.67212-8.780047 15.57544-18.884197 19.488787-30.565277 2.258469-6.744427 6.056893-8.90796 12.884264-8.577185 14.73501 0.712517 29.960687 2.519292 36.074342 17.637042 6.470613 15.957181-1.507978 29.954691-12.635433 41.686537-10.504878 11.096477-10.733723 11.020528-2.411365 23.821849 7.882656 12.164752 15.931199 24.228573 23.986737 36.266411 1.215176 1.831758 1.94668 4.936653 4.650847 4.503946 2.589244-0.406724 2.602236-3.537602 3.301761-5.64917 12.056825-36.012583 24.324508-71.973002 35.910653-108.137483 2.704167-8.398306 5.764092-10.282029 14.124424-6.922307 26.086313 10.459908 53.266685 18.094732 78.563534 30.642025 33.104555 16.389888 51.263044 42.425236 51.408945 79.988568 0.031978 7.558875 0.158892 15.11775-0.04397 22.650643-0.496663 18.960145-12.960213 31.558603-31.927353 31.7105-31.035958 0.229844-62.065919 0.076948-93.114668 0.076948C831.555389 693.593336 831.555389 693.593336 831.555389 693.568353L831.555389 693.568353 831.555389 693.568353z" /></svg>