<svg class="icon" width="200" height="200" viewBox="0 0 1024 1024" xmlns="http://www.w3.org/2000/svg"><path d="M503.308 274.916c53.426 4.301 101.1 20.717 133.033 67.188 17.249 25.094 20.735 53.573 16.352 83.273-.375 2.57-.598 5.217-1.355 7.686-1.578 5.165.534 7.38 5.452 8.602 17.847 4.453 21.156 8.907 21.251 27.027.083 16.772-4.435 32.678-9.683 48.355-4.143 12.369-12.42 20.208-25.979 20.945-5.274.28-7.253 2.647-8.525 7.712-13.483 53.852-48.018 90.22-96.716 114.066-22.244 10.893-44.22 6.54-64.911-5.267-36.355-20.768-63.987-49.602-79.785-88.872-2.476-6.134-4.467-12.597-5.644-19.113-1.005-5.497-3.595-7.838-8.856-8.908-11.23-2.366-19.304-9.009-23.962-19.57-7.431-16.924-11.751-34.561-11.185-53.165.426-13.87 5.682-20.462 19.075-22.727 5.758-.967 6.012-3.665 5.713-8.297-1.457-22.853-2.417-45.733 2.85-68.308 9.474-40.567 31.247-60.545 72.482-66.475 3.442-.509 6.935-1.323 10.358-1.196 8.329.407 14.17-.636 17.185-10.714 2.57-8.526 12.013-11.173 20.678-12.14 4.008-.484 8.119-.102 12.172-.102zm71.762 565.956c3.736-10.001 7.515-19.952 11.129-29.929 11.682-32.169 23.439-64.337 34.822-96.608 2.538-7.202 5.293-9.289 13.227-6.363 29.357 10.893 59.368 19.979 88.47 31.584 25.126 10.027 47.242 23.618 58.891 49.678 5.186 11.58 7.788 23.669 7.935 36.292.095 9.01-.007 17.993-.05 26.977-.116 20.793-15.557 36.089-36.401 36.114-160.195.025-320.39-.051-480.572.254-17.796.025-31.068-5.777-38.62-22.37-.948-2.113-2.176-4.378-2.195-6.567-.185-19.953-2.437-40.007 3.283-59.705 9.13-31.38 32.029-48.915 60.946-59.757 30.407-11.4 61.258-21.658 91.773-32.78 6.929-2.519 9.6-.559 11.949 6.057 14.112 39.932 28.643 79.71 43.035 119.539.872 2.392 1.852 4.785 2.768 7.126 3.493.255 4.002-2.52 5.058-4.326 11.478-19.495 22.663-39.193 34.364-58.561 3.296-5.446 1.431-8.17-2.787-11.503-12.712-10.052-19.71-23.286-20.811-39.523-.79-11.81 4.65-20.438 14.735-25.578 21.951-11.147 44.582-12.14 66.965-1.374 14.29 6.871 18.776 17.382 15.894 33.033-2.616 14.1-10.091 25.196-20.837 34.256-3.506 2.978-5.504 5.6-2.698 10.231 12.597 20.87 25.03 41.815 37.551 62.709.248.382.96.51 2.176 1.094zm139.167-705.88c43.819 3.258 84.087 18.096 114.182 53.674 18.011 21.276 24.603 46.93 22.662 74.645-.503 7.203-.578 14.507-2.742 21.506-1.145 3.69.395 4.962 4.161 5.624 16.715 2.901 20.354 7.355 20.57 24.254.21 17.407-4.473 33.823-10.332 49.958-3.563 9.799-11.274 14.608-21.378 15.041-5.771.254-7.648 2.749-9.022 8.144-12.89 50.39-44.976 84.494-91.353 106.203-.267.127-.535.229-.801.33-17.936 7.05-19.33 5.778-16.982-12.8 3.06-24.28-.961-46.854-18.286-65.509-3.34-3.588-4.994-7.33-5.09-12.369-1.291-70.19-37.081-118.062-97.645-149.518-15.143-7.89-15.302-7.457-12.77-24.534 3.646-24.635 11.828-46.726 34.447-60.52 14.538-8.856 30.8-11.682 47.432-12.42 5.713-.254 8.704-1.628 10.333-7.66 2.31-8.627 10.008-11.58 17.98-13.055 4.231-.79 8.653-.637 14.634-.994zm-418.397.128c48.947 4.785 92.218 20.461 121.18 63.268 9.627 14.202 14.233 30.235 15.805 47.337.617 6.744-1.655 9.34-7.922 10.587-23.789 4.734-45.345 14.202-63.122 31.151-24.59 23.465-35.09 53.394-39.021 86.148-1.254 10.333-1.4 20.818-1.845 31.253-.166 3.64-.974 6.642-3.608 9.39-18.222 19.114-23.217 42.07-19.437 67.57 2.615 17.714.254 19.8-16.301 12.751-47.07-20.055-78.755-54.209-92.771-103.785-1.953-6.948-4.537-11.122-12.07-12.445-7.826-1.4-13.368-6.82-16.994-13.82-9.022-17.407-12.776-36.01-11.796-55.48.49-9.824 5.802-16.034 15.83-18.095 5.611-1.145 7.126-3.716 6.775-8.857-.941-14.175-1.4-28.224-.458-42.501 3.506-53.293 29.116-79.608 82.668-82.865 5.91-.357 9.251-1.45 11.052-7.966 2.488-8.933 10.72-11.656 18.998-12.98 4.282-.661 8.698-.458 13.03-.661h.007zm-106.8 558.422c-31.324 0-62.652.051-93.975-.025-15.76-.025-28.815-10.765-30.38-26.544-1.413-14.074-1.68-28.402.444-42.502 5.167-34.408 26.424-56.04 57.256-68.816 23.548-9.773 47.72-18.045 71.649-26.876 10.548-3.919 10.644-3.842 14.105 6.541 11.853 35.478 23.65 70.955 35.516 106.433.884 2.646.668 6.896 3.614 7.355 3.64.584 4.51-3.895 6.165-6.363 9.295-14.048 18.158-28.326 27.632-42.221 3.436-5.04 2.552-7.61-1.985-11.275-11.433-9.238-19.093-20.946-20.003-36.164-.535-8.984 3.372-15.729 10.981-20.258 10.295-6.185 21.556-8.119 33.454-7.33 3.754.254 5.708 2.316 7.037 5.47 5.72 13.567 13.96 25.4 25.081 35.07 3.309 2.852 3.309 5.6 1.088 9.087-3.632 5.7-7.838 10.994-13.323 14.787-4.797 3.333-4.727 6.107-1.692 10.561 12.852 18.986 25.412 38.125 38.137 57.186 5.93 8.882 5.802 9.67-4.098 13.158-19.679 6.948-39.81 12.597-59.05 20.817-4.371 1.86-9.01 1.935-13.686 1.935-31.323-.05-62.645-.026-93.968-.026zm642.515.026c-30.464 0-60.914-.178-91.371.127-8.107.077-15.417-2.24-22.797-4.784-17.274-5.93-34.537-11.936-51.785-17.917-9.29-3.206-9.62-4.149-4.205-12.572 12.45-19.24 24.743-38.583 37.437-57.645 3.2-4.81 3.626-8.016-1.597-11.325-2.412-1.527-4.36-3.817-6.338-5.93-8.633-9.238-8.45-10.103.395-19.036 8.672-8.78 15.575-18.884 19.489-30.565 2.258-6.745 6.057-8.908 12.884-8.577 14.735.712 29.96 2.519 36.074 17.637 6.47 15.957-1.508 29.954-12.635 41.686-10.505 11.097-10.734 11.02-2.412 23.822 7.883 12.165 15.932 24.229 23.987 36.266 1.215 1.832 1.947 4.937 4.651 4.504 2.59-.406 2.602-3.537 3.302-5.649 12.057-36.012 24.324-71.973 35.91-108.137 2.705-8.399 5.765-10.282 14.125-6.923 26.086 10.46 53.267 18.095 78.563 30.642 33.105 16.39 51.263 42.426 51.41 79.989.031 7.559.158 15.118-.045 22.65-.496 18.96-12.96 31.56-31.927 31.711-31.036.23-62.066.077-93.115.077v-.05z"/></svg>