<?xml version="1.0" standalone="no"?><!DOCTYPE svg PUBLIC "-//W3C//DTD SVG 1.1//EN" "http://www.w3.org/Graphics/SVG/1.1/DTD/svg11.dtd"><svg class="icon" width="200px" height="200.00px" viewBox="0 0 1024 1024" version="1.1" xmlns="http://www.w3.org/2000/svg"><path fill="#333333" d="M855.424 220.8 803.2 220.8 803.2 168.554667C803.2 75.605333 727.616 0 634.645333 0L168.554667 0C75.605333 0 0 75.605333 0 168.554667L0 634.666667c0 92.906667 75.605333 168.533333 168.554667 168.533333l52.224 0L220.778667 855.466667c0 92.906667 75.605333 168.533333 168.554667 168.533333L855.466667 1024c92.906667 0 168.533333-75.626667 168.490667-168.533333L1023.957333 389.354667C1023.957333 296.405333 948.330667 220.8 855.424 220.8zM42.730667 634.666667 42.730667 168.554667c0-69.376 56.448-125.824 125.824-125.824l466.090667 0c69.376 0 125.802667 56.469333 125.802667 125.824L760.448 634.666667c0 69.354667-56.426667 125.781333-125.802667 125.781333L168.554667 760.448C99.178667 760.448 42.730667 704.042667 42.730667 634.666667zM981.226667 855.466667c0 69.376-56.448 125.802667-125.802667 125.802667L389.312 981.269333c-69.376 0-125.824-56.448-125.824-125.802667L263.488 803.2l371.157333 0c92.970667 0 168.554667-75.626667 168.554667-168.533333L803.2 263.509333l52.202667 0c69.376 0 125.802667 56.448 125.802667 125.824L981.205333 855.466667z" /></svg>